# xmcd
#
# Track frame offsets: 
#        150
#        19418
#        34469
#        47454
#        62843
#        78930
#        95792
#        122068
#        131955
#        156549
#
# Disc length: 2376 seconds
#
# Revision: 0
# Processed by: cddbd v1.5.2PL0 Copyright (c) Steve Scherf et al.
# Submitted via: ExactAudioCopyFreeDBPlugin 1.0
#
DISCID=9009460a
DTITLE=John Egan - Magnolia City
DYEAR=2016
DGENRE=Blues
TTITLE0=Once A Gambler
TTITLE1=Harder Than A Stone
TTITLE2=Looking For A Place To Fall
TTITLE3=Maggie's Farm
TTITLE4=It Ain't The Gun
TTITLE5=Mojo Hand
TTITLE6=Marie
TTITLE7=Where The Angels Fly
TTITLE8=Man I'll Never Be
TTITLE9=Midnight Raven Blues
EXTD=
EXTT0=
EXTT1=
EXTT2=
EXTT3=
EXTT4=
EXTT5=
EXTT6=
EXTT7=
EXTT8=
EXTT9=
PLAYORDER=
